<mxfile host="65bd71144e">
    <diagram id="wKKiUWEgryos_iY61zEp" name="Page-1">
        <mxGraphModel dx="408" dy="807" grid="1" gridSize="10" guides="1" tooltips="1" connect="1" arrows="1" fold="1" page="1" pageScale="1" pageWidth="850" pageHeight="1100" math="0" shadow="0">
            <root>
                <mxCell id="0"/>
                <mxCell id="1" parent="0"/>
                <mxCell id="16" style="edgeStyle=none;html=1;entryX=0;entryY=0.5;entryDx=0;entryDy=0;endArrow=classic;endFill=1;startArrow=classic;startFill=1;" edge="1" parent="1" source="2" target="15">
                    <mxGeometry relative="1" as="geometry"/>
                </mxCell>
                <mxCell id="2" value="Отталкивание" style="swimlane;" parent="1" vertex="1">
                    <mxGeometry x="60" y="40" width="200" height="260" as="geometry"/>
                </mxCell>
                <mxCell id="7" value="Мультипликатор" style="whiteSpace=wrap;html=1;" parent="2" vertex="1">
                    <mxGeometry x="10" y="30" width="180" height="20" as="geometry"/>
                </mxCell>
                <mxCell id="8" value="Максимальное расстояние обработки" style="whiteSpace=wrap;html=1;" parent="2" vertex="1">
                    <mxGeometry x="10" y="60" width="180" height="30" as="geometry"/>
                </mxCell>
                <mxCell id="9" value="Минимальное расстояние обработки" style="whiteSpace=wrap;html=1;" parent="2" vertex="1">
                    <mxGeometry x="10" y="100" width="180" height="30" as="geometry"/>
                </mxCell>
                <mxCell id="11" value="RVIZ Стрелочка отталкивания" style="whiteSpace=wrap;html=1;" vertex="1" parent="2">
                    <mxGeometry x="10" y="140" width="180" height="30" as="geometry"/>
                </mxCell>
                <mxCell id="12" value="RVIZ Облако обрабатываемых точек" style="whiteSpace=wrap;html=1;" vertex="1" parent="2">
                    <mxGeometry x="10" y="180" width="180" height="30" as="geometry"/>
                </mxCell>
                <mxCell id="13" value="RVIZ Круг обработки" style="whiteSpace=wrap;html=1;" vertex="1" parent="2">
                    <mxGeometry x="10" y="220" width="180" height="30" as="geometry"/>
                </mxCell>
                <mxCell id="17" style="edgeStyle=none;html=1;entryX=1;entryY=0.5;entryDx=0;entryDy=0;startArrow=classic;startFill=1;" edge="1" parent="1" source="4" target="15">
                    <mxGeometry relative="1" as="geometry"/>
                </mxCell>
                <mxCell id="4" value="Притягивание" style="swimlane;" parent="1" vertex="1">
                    <mxGeometry x="530" y="50" width="200" height="200" as="geometry"/>
                </mxCell>
                <mxCell id="18" style="edgeStyle=none;html=1;entryX=0.5;entryY=1;entryDx=0;entryDy=0;startArrow=classic;startFill=1;" edge="1" parent="1" source="6" target="15">
                    <mxGeometry relative="1" as="geometry"/>
                </mxCell>
                <mxCell id="6" value="Регулятор" style="swimlane;" parent="1" vertex="1">
                    <mxGeometry x="290" y="320" width="200" height="200" as="geometry"/>
                </mxCell>
                <mxCell id="15" value="Сервер Динамической Реконфигурации&lt;br&gt;(СДР)" style="shape=datastore;whiteSpace=wrap;html=1;" vertex="1" parent="1">
                    <mxGeometry x="340" y="80" width="100" height="120" as="geometry"/>
                </mxCell>
            </root>
        </mxGraphModel>
    </diagram>
</mxfile>